<svg width="23" height="24" viewBox="0 0 23 24" fill="none" xmlns="http://www.w3.org/2000/svg">
<path id="login" d="M11.5 9.77778C11.9852 9.77778 12.4656 9.67719 12.9138 9.48175C13.362 9.28632 13.7693 8.99987 14.1124 8.63875C14.4554 8.27763 14.7276 7.84892 14.9132 7.3771C15.0989 6.90528 15.1944 6.39959 15.1944 5.88889C15.1944 5.37819 15.0989 4.8725 14.9132 4.40068C14.7276 3.92885 14.4554 3.50015 14.1124 3.13903C13.7693 2.77791 13.362 2.49146 12.9138 2.29602C12.4656 2.10059 11.9852 2 11.5 2C10.5202 2 9.58048 2.40972 8.88763 3.13903C8.19479 3.86834 7.80556 4.85749 7.80556 5.88889C7.80556 6.92029 8.19479 7.90944 8.88763 8.63875C9.58048 9.36806 10.5202 9.77778 11.5 9.77778ZM2 21.3333V22H21V21.3333C21 18.8444 21 17.6 20.5398 16.6489C20.135 15.8127 19.4891 15.1328 18.6947 14.7067C17.7911 14.2222 16.6089 14.2222 14.2444 14.2222H8.75556C6.39111 14.2222 5.20889 14.2222 4.30533 14.7067C3.51091 15.1328 2.86501 15.8127 2.46022 16.6489C2 17.6 2 18.8444 2 21.3333Z" stroke="black" stroke-width="4" stroke-linecap="round" stroke-linejoin="round"/>
</svg>
