<svg width="71" height="45" viewBox="0 0 71 45" fill="none" xmlns="http://www.w3.org/2000/svg">
<g id="N&#195;&#186;t t&#195;&#172;m ki&#225;&#186;&#191;m">
<rect id="Rectangle 4" width="71" height="45" rx="10" fill="#ECE423"/>
<path id="Vector" d="M48.339 32.7034L43.4013 26.9385C43.1784 26.6783 42.8763 26.5337 42.5594 26.5337C42.2148 26.5337 42.0062 26.147 42.1786 25.8486C43.2863 23.9308 43.9312 21.6211 43.9312 19.1324C43.9312 12.4886 39.3204 7.10529 33.6299 7.10529C27.9394 7.10529 23.3286 12.4886 23.3286 19.1324C23.3286 25.7763 27.9394 31.1596 33.6299 31.1596C35.7027 31.1596 37.6305 30.4475 39.2457 29.219C39.5333 29.0003 39.9692 29.1965 39.9692 29.5579C39.9692 29.9279 40.093 30.2807 40.3159 30.5409L45.2536 36.3058C45.7191 36.8493 46.4719 36.8493 46.9325 36.3058L48.3341 34.6694C48.7996 34.1259 48.7996 33.247 48.339 32.7034ZM33.6299 26.5337C30.1284 26.5337 27.2906 23.2263 27.2906 19.1324C27.2906 15.0444 30.1235 11.7311 33.6299 11.7311C37.1314 11.7311 39.9692 15.0386 39.9692 19.1324C39.9692 23.2205 37.1363 26.5337 33.6299 26.5337Z" fill="black"/>
</g>
</svg>
