<svg width="33" height="34" viewBox="0 0 33 34" fill="none" xmlns="http://www.w3.org/2000/svg">
<path id="Vector" d="M16.5 13.5964C17.2405 13.5964 17.9738 13.4498 18.6579 13.1651C19.3421 12.8804 19.9637 12.463 20.4873 11.9369C21.0109 11.4107 21.4263 10.7861 21.7097 10.0987C21.993 9.41126 22.1389 8.67447 22.1389 7.9304C22.1389 7.18633 21.993 6.44955 21.7097 5.76212C21.4263 5.07469 21.0109 4.45007 20.4873 3.92394C19.9637 3.3978 19.3421 2.98045 18.6579 2.6957C17.9738 2.41096 17.2405 2.2644 16.5 2.2644C15.0045 2.2644 13.5702 2.86136 12.5127 3.92394C11.4552 4.98652 10.8611 6.42769 10.8611 7.9304C10.8611 9.43312 11.4552 10.8743 12.5127 11.9369C13.5702 12.9995 15.0045 13.5964 16.5 13.5964ZM2 30.4325V31.4038H31V30.4325C31 26.8063 31 24.9932 30.2976 23.6074C29.6797 22.389 28.6939 21.3985 27.4813 20.7777C26.1022 20.0718 24.2978 20.0718 20.6889 20.0718H12.3111C8.70222 20.0718 6.89778 20.0718 5.51867 20.7777C4.30612 21.3985 3.32029 22.389 2.70244 23.6074C2 24.9932 2 26.8063 2 30.4325Z" stroke="black" stroke-width="4" stroke-linecap="round" stroke-linejoin="round"/>
</svg>
