<svg width="25" height="26" viewBox="0 0 25 26" fill="none" xmlns="http://www.w3.org/2000/svg">
<path id="Vector" d="M10.9253 7.10247L7.54977 1.44994C7.41098 1.21741 7.21462 1.02496 6.97982 0.891348C6.74501 0.757733 6.47977 0.687503 6.20993 0.6875H0.782679C0.150355 0.6875 -0.219762 1.40235 0.142543 1.9229L5.57565 9.72194C7.02682 8.35946 8.87252 7.42432 10.9253 7.10247ZM24.2172 0.6875H18.79C18.2412 0.6875 17.7324 0.976971 17.4502 1.44994L14.0747 7.10247C16.1274 7.42432 17.9731 8.35946 19.4243 9.72145L24.8574 1.9229C25.2197 1.40235 24.8496 0.6875 24.2172 0.6875ZM12.5 8.53756C7.75387 8.53756 3.90621 12.4037 3.90621 17.1726C3.90621 21.9415 7.75387 25.8077 12.5 25.8077C17.2461 25.8077 21.0937 21.9415 21.0937 17.1726C21.0937 12.4037 17.2461 8.53756 12.5 8.53756ZM17.0175 16.2532L15.1655 18.0666L15.6035 20.6286C15.6816 21.0878 15.2002 21.4386 14.7905 21.2218L12.5 20.0124L10.2099 21.2218C9.79977 21.4401 9.31881 21.0874 9.39694 20.6286L9.83492 18.0666L7.98287 16.2532C7.64987 15.9274 7.83395 15.3588 8.29293 15.292L10.853 14.9172L11.997 12.5857C12.1001 12.3757 12.2993 12.2722 12.499 12.2722C12.6997 12.2722 12.9004 12.3772 13.0034 12.5857L14.1474 14.9172L16.7075 15.292C17.1665 15.3588 17.3505 15.9274 17.0175 16.2532Z" fill="black"/>
</svg>
