<svg width="71" height="45" viewBox="0 0 71 45" fill="none" xmlns="http://www.w3.org/2000/svg">
<g id="N&#195;&#186;t t&#195;&#172;m ki&#225;&#186;&#191;m">
<rect id="Rectangle 4" width="71" height="45" rx="10" fill="#ECE423"/>
<path id="Vector" d="M48.339 33.1394L43.4013 27.3468C43.1784 27.0853 42.8763 26.9401 42.5594 26.9401C42.2143 26.9401 42.0051 26.5532 42.1772 26.2541C43.2857 24.3266 43.9312 22.0049 43.9312 19.5032C43.9312 12.8274 39.3204 7.41821 33.6299 7.41821C27.9394 7.41821 23.3286 12.8274 23.3286 19.5032C23.3286 26.179 27.9394 31.5881 33.6299 31.5881C35.7018 31.5881 37.6288 30.8733 39.2436 29.6399C39.5316 29.4199 39.9692 29.6163 39.9692 29.9787C39.9692 30.3506 40.093 30.705 40.3159 30.9665L45.2536 36.7591C45.7191 37.3053 46.4719 37.3053 46.9325 36.7591L48.3341 35.1149C48.7996 34.5687 48.7996 33.6856 48.339 33.1394ZM33.6299 26.9401C30.1284 26.9401 27.2906 23.6167 27.2906 19.5032C27.2906 15.3954 30.1235 12.0663 33.6299 12.0663C37.1314 12.0663 39.9692 15.3896 39.9692 19.5032C39.9692 23.6109 37.1363 26.9401 33.6299 26.9401Z" fill="black"/>
</g>
</svg>
