<svg width="33" height="34" viewBox="0 0 33 34" fill="none" xmlns="http://www.w3.org/2000/svg">
<g id="Vector" filter="url(#filter0_f_2535_339)">
<path d="M14.9253 11.1025L11.5498 5.44994C11.411 5.21741 11.2146 5.02496 10.9798 4.89135C10.745 4.75773 10.4798 4.6875 10.2099 4.6875H4.78268C4.15036 4.6875 3.78024 5.40235 4.14254 5.9229L9.57565 13.7219C11.0268 12.3595 12.8725 11.4243 14.9253 11.1025ZM28.2172 4.6875H22.79C22.2412 4.6875 21.7324 4.97697 21.4502 5.44994L18.0747 11.1025C20.1274 11.4243 21.9731 12.3595 23.4243 13.7214L28.8574 5.9229C29.2197 5.40235 28.8496 4.6875 28.2172 4.6875ZM16.5 12.5376C11.7539 12.5376 7.90621 16.4037 7.90621 21.1726C7.90621 25.9415 11.7539 29.8077 16.5 29.8077C21.2461 29.8077 25.0937 25.9415 25.0937 21.1726C25.0937 16.4037 21.2461 12.5376 16.5 12.5376ZM21.0175 20.2532L19.1655 22.0666L19.6035 24.6286C19.6816 25.0878 19.2002 25.4386 18.7905 25.2218L16.5 24.0124L14.2099 25.2218C13.7998 25.4401 13.3188 25.0874 13.3969 24.6286L13.8349 22.0666L11.9829 20.2532C11.6499 19.9274 11.8339 19.3588 12.2929 19.292L14.853 18.9172L15.997 16.5857C16.1001 16.3757 16.2993 16.2722 16.499 16.2722C16.6997 16.2722 16.9004 16.3772 17.0034 16.5857L18.1474 18.9172L20.7075 19.292C21.1665 19.3588 21.3505 19.9274 21.0175 20.2532Z" fill="black"/>
</g>
<defs>
<filter id="filter0_f_2535_339" x="0" y="0.6875" width="32.9999" height="33.1202" filterUnits="userSpaceOnUse" color-interpolation-filters="sRGB">
<feFlood flood-opacity="0" result="BackgroundImageFix"/>
<feBlend mode="normal" in="SourceGraphic" in2="BackgroundImageFix" result="shape"/>
<feGaussianBlur stdDeviation="2" result="effect1_foregroundBlur_2535_339"/>
</filter>
</defs>
</svg>
