<svg width="22" height="23" viewBox="0 0 22 23" fill="none" xmlns="http://www.w3.org/2000/svg">
<path id="Vector" d="M21.0938 19.4748H0.78125C0.57405 19.4748 0.375336 19.5575 0.228823 19.7047C0.08231 19.8519 0 20.0516 0 20.2598L0 21.8298C0 22.038 0.08231 22.2376 0.228823 22.3849C0.375336 22.5321 0.57405 22.6148 0.78125 22.6148H21.0938C21.301 22.6148 21.4997 22.5321 21.6462 22.3849C21.7927 22.2376 21.875 22.038 21.875 21.8298V20.2598C21.875 20.0516 21.7927 19.8519 21.6462 19.7047C21.4997 19.5575 21.301 19.4748 21.0938 19.4748ZM21.0938 13.1947H0.78125C0.57405 13.1947 0.375336 13.2774 0.228823 13.4246C0.08231 13.5718 0 13.7715 0 13.9797L0 15.5497C0 15.7579 0.08231 15.9576 0.228823 16.1048C0.375336 16.252 0.57405 16.3347 0.78125 16.3347H21.0938C21.301 16.3347 21.4997 16.252 21.6462 16.1048C21.7927 15.9576 21.875 15.7579 21.875 15.5497V13.9797C21.875 13.7715 21.7927 13.5718 21.6462 13.4246C21.4997 13.2774 21.301 13.1947 21.0938 13.1947ZM21.0938 6.91466H0.78125C0.57405 6.91466 0.375336 6.99737 0.228823 7.14458C0.08231 7.2918 0 7.49147 0 7.69967L0 9.26968C0 9.47788 0.08231 9.67754 0.228823 9.82476C0.375336 9.97198 0.57405 10.0547 0.78125 10.0547H21.0938C21.301 10.0547 21.4997 9.97198 21.6462 9.82476C21.7927 9.67754 21.875 9.47788 21.875 9.26968V7.69967C21.875 7.49147 21.7927 7.2918 21.6462 7.14458C21.4997 6.99737 21.301 6.91466 21.0938 6.91466ZM21.0938 0.634613H0.78125C0.57405 0.634613 0.375336 0.717319 0.228823 0.864536C0.08231 1.01175 0 1.21142 0 1.41962L0 2.98963C0 3.19783 0.08231 3.3975 0.228823 3.54471C0.375336 3.69193 0.57405 3.77464 0.78125 3.77464H21.0938C21.301 3.77464 21.4997 3.69193 21.6462 3.54471C21.7927 3.3975 21.875 3.19783 21.875 2.98963V1.41962C21.875 1.21142 21.7927 1.01175 21.6462 0.864536C21.4997 0.717319 21.301 0.634613 21.0938 0.634613Z" fill="black"/>
</svg>
