<svg width="22" height="23" viewBox="0 0 22 23" fill="none" xmlns="http://www.w3.org/2000/svg">
<path id="Vector" d="M21.0938 19.4748H0.78125C0.57405 19.4748 0.375336 19.5575 0.228823 19.7047C0.08231 19.8519 0 20.0516 0 20.2598L0 21.8298C0 22.038 0.08231 22.2377 0.228823 22.3849C0.375336 22.5321 0.57405 22.6148 0.78125 22.6148H21.0938C21.301 22.6148 21.4997 22.5321 21.6462 22.3849C21.7927 22.2377 21.875 22.038 21.875 21.8298V20.2598C21.875 20.0516 21.7927 19.8519 21.6462 19.7047C21.4997 19.5575 21.301 19.4748 21.0938 19.4748ZM21.0938 13.1947H0.78125C0.57405 13.1947 0.375336 13.2774 0.228823 13.4247C0.08231 13.5719 0 13.7715 0 13.9797L0 15.5498C0 15.758 0.08231 15.9576 0.228823 16.1048C0.375336 16.2521 0.57405 16.3348 0.78125 16.3348H21.0938C21.301 16.3348 21.4997 16.2521 21.6462 16.1048C21.7927 15.9576 21.875 15.758 21.875 15.5498V13.9797C21.875 13.7715 21.7927 13.5719 21.6462 13.4247C21.4997 13.2774 21.301 13.1947 21.0938 13.1947ZM21.0938 6.91469H0.78125C0.57405 6.91469 0.375336 6.9974 0.228823 7.14461C0.08231 7.29183 0 7.4915 0 7.6997L0 9.26971C0 9.47791 0.08231 9.67758 0.228823 9.82479C0.375336 9.97201 0.57405 10.0547 0.78125 10.0547H21.0938C21.301 10.0547 21.4997 9.97201 21.6462 9.82479C21.7927 9.67758 21.875 9.47791 21.875 9.26971V7.6997C21.875 7.4915 21.7927 7.29183 21.6462 7.14461C21.4997 6.9974 21.301 6.91469 21.0938 6.91469ZM21.0938 0.634644H0.78125C0.57405 0.634644 0.375336 0.717349 0.228823 0.864566C0.08231 1.01178 0 1.21145 0 1.41965L0 2.98966C0 3.19786 0.08231 3.39753 0.228823 3.54474C0.375336 3.69196 0.57405 3.77467 0.78125 3.77467H21.0938C21.301 3.77467 21.4997 3.69196 21.6462 3.54474C21.7927 3.39753 21.875 3.19786 21.875 2.98966V1.41965C21.875 1.21145 21.7927 1.01178 21.6462 0.864566C21.4997 0.717349 21.301 0.634644 21.0938 0.634644Z" fill="black"/>
</svg>
