<svg width="33" height="33" viewBox="0 0 33 33" fill="none" xmlns="http://www.w3.org/2000/svg">
<path id="Vector" d="M16.5 13.2778C17.2405 13.2778 17.9738 13.1319 18.6579 12.8485C19.3421 12.5652 19.9637 12.1498 20.4873 11.6262C21.0109 11.1026 21.4263 10.4809 21.7097 9.7968C21.993 9.11266 22.1389 8.3794 22.1389 7.63889C22.1389 6.89838 21.993 6.16512 21.7097 5.48098C21.4263 4.79684 21.0109 4.17521 20.4873 3.65159C19.9637 3.12797 19.3421 2.71262 18.6579 2.42923C17.9738 2.14585 17.2405 2 16.5 2C15.0045 2 13.5702 2.5941 12.5127 3.65159C11.4552 4.70909 10.8611 6.14336 10.8611 7.63889C10.8611 9.13442 11.4552 10.5687 12.5127 11.6262C13.5702 12.6837 15.0045 13.2778 16.5 13.2778ZM2 30.0333V31H31V30.0333C31 26.4244 31 24.62 30.2976 23.2409C29.6797 22.0283 28.6939 21.0425 27.4813 20.4247C26.1022 19.7222 24.2978 19.7222 20.6889 19.7222H12.3111C8.70222 19.7222 6.89778 19.7222 5.51867 20.4247C4.30612 21.0425 3.32029 22.0283 2.70244 23.2409C2 24.62 2 26.4244 2 30.0333Z" stroke="black" stroke-width="4" stroke-linecap="round" stroke-linejoin="round"/>
</svg>
