<svg width="44" height="37" viewBox="0 0 44 37" fill="none" xmlns="http://www.w3.org/2000/svg">
<g id="icon xe">
<path id="Vector" d="M40 2.65384H18C17.4696 2.65384 16.9609 2.86557 16.5858 3.24244C16.2107 3.61932 16 4.13047 16 4.66345V26.7692C16 27.3022 16.2107 27.8134 16.5858 28.1902C16.9609 28.5671 17.4696 28.7788 18 28.7788H40C40.5304 28.7788 41.0391 28.5671 41.4142 28.1902C41.7893 27.8134 42 27.3022 42 26.7692V4.66345C42 4.13047 41.7893 3.61932 41.4142 3.24244C41.0391 2.86557 40.5304 2.65384 40 2.65384ZM2 28.7788H16V14.7115H9L2 21.2046V28.7788Z" stroke="black" stroke-width="4" stroke-linejoin="round"/>
<path id="Vector_2" d="M16 30.7885C16 31.8544 15.5786 32.8767 14.8284 33.6305C14.0783 34.3842 13.0609 34.8077 12 34.8077C10.9391 34.8077 9.92172 34.3842 9.17157 33.6305C8.42143 32.8767 8 31.8544 8 30.7885M38 30.7885C38 31.8544 37.5786 32.8767 36.8284 33.6305C36.0783 34.3842 35.0609 34.8077 34 34.8077C32.9391 34.8077 31.9217 34.3842 31.1716 33.6305C30.4214 32.8767 30 31.8544 30 30.7885" stroke="black" stroke-width="4" stroke-linecap="round" stroke-linejoin="round"/>
</g>
</svg>
