<svg width="44" height="36" viewBox="0 0 44 36" fill="none" xmlns="http://www.w3.org/2000/svg">
<g id="icon xe">
<path id="Vector" d="M40 2H18C17.4696 2 16.9609 2.21071 16.5858 2.58579C16.2107 2.96086 16 3.46957 16 4V26C16 26.5304 16.2107 27.0391 16.5858 27.4142C16.9609 27.7893 17.4696 28 18 28H40C40.5304 28 41.0391 27.7893 41.4142 27.4142C41.7893 27.0391 42 26.5304 42 26V4C42 3.46957 41.7893 2.96086 41.4142 2.58579C41.0391 2.21071 40.5304 2 40 2ZM2 28H16V14H9L2 20.462V28Z" stroke="black" stroke-width="4" stroke-linejoin="round"/>
<path id="Vector_2" d="M16 30C16 31.0609 15.5786 32.0783 14.8284 32.8284C14.0783 33.5786 13.0609 34 12 34C10.9391 34 9.92172 33.5786 9.17157 32.8284C8.42143 32.0783 8 31.0609 8 30M38 30C38 31.0609 37.5786 32.0783 36.8284 32.8284C36.0783 33.5786 35.0609 34 34 34C32.9391 34 31.9217 33.5786 31.1716 32.8284C30.4214 32.0783 30 31.0609 30 30" stroke="black" stroke-width="4" stroke-linecap="round" stroke-linejoin="round"/>
</g>
</svg>
