<svg width="71" height="45" viewBox="0 0 71 45" fill="none" xmlns="http://www.w3.org/2000/svg">
<g id="N&#195;&#186;t t&#195;&#172;m ki&#225;&#186;&#191;m">
<rect id="Rectangle 4" width="71" height="45" rx="10" fill="#ECE423"/>
<path id="Vector" d="M48.3391 33.1394L43.4014 27.3468C43.1785 27.0853 42.8764 26.9401 42.5594 26.9401C42.2143 26.9401 42.0052 26.5532 42.1772 26.2541C43.2858 24.3266 43.9313 22.0049 43.9313 19.5032C43.9313 12.8274 39.3205 7.41821 33.63 7.41821C27.9395 7.41821 23.3286 12.8274 23.3286 19.5032C23.3286 26.179 27.9395 31.5881 33.63 31.5881C35.7019 31.5881 37.6289 30.8733 39.2436 29.6399C39.5316 29.4199 39.9692 29.6163 39.9692 29.9787C39.9692 30.3506 40.0931 30.705 40.3159 30.9665L45.2536 36.7591C45.7192 37.3053 46.472 37.3053 46.9325 36.7591L48.3341 35.1149C48.7997 34.5687 48.7997 33.6856 48.3391 33.1394ZM33.63 26.9401C30.1285 26.9401 27.2907 23.6167 27.2907 19.5032C27.2907 15.3954 30.1235 12.0663 33.63 12.0663C37.1314 12.0663 39.9692 15.3896 39.9692 19.5032C39.9692 23.6109 37.1364 26.9401 33.63 26.9401Z" fill="black"/>
</g>
</svg>
